<svg height="35.051086mm" viewBox="0 0 232.16342 35.051086" width="232.16342mm" xmlns="http://www.w3.org/2000/svg"><g transform="matrix(.03527778 0 0 -.03527778 0 35.051085)"><path d="m637.359 784.762h-446.289v-176.063h368.496v-191.07h-368.496v-398.5196h-191.07v956.7186h637.359z" fill="#100f0d"/><path d="m1123.22 975.828 451.75-956.7186h-211.54l-272.96 581.4026-296.161-581.4026h-214.274l487.235 956.7186z" fill="#ea1a2d"/><g fill="#100f0d"><path d="m1954.39 424.453c-31.39 8.188-90.08 23.199-144.67 60.051-76.43 50.496-118.74 124.195-122.83 215.637-4.1 76.425 20.47 143.3 69.61 195.168 70.96 73.695 173.33 94.168 222.46 94.168 139.21 0 217-50.497 286.6-95.536l31.39-20.468-99.62-162.414-34.13 21.836c-61.41 39.582-100.99 65.511-184.24 65.511-12.29 0-60.05-9.554-84.62-35.484-8.19-8.192-17.74-23.203-16.38-54.594 1.37-49.129 35.49-76.43 122.83-98.265 10.92-2.727 19.11-5.458 27.3-8.188 91.44-31.391 162.41-73.695 211.55-126.926 49.13-54.594 75.05-118.738 75.05-186.98 0-66.875-28.65-136.477-76.42-189.7073-55.96-62.7734-133.75-98.2617-219.73-98.2617-42.31 0-99.63 2.73438-167.87 23.2031-85.99 27.293-162.42 75.0586-227.92 144.6679l139.2 131.016c101-107.813 214.28-107.813 256.59-107.813 79.15 0 105.08 72.332 105.08 96.895 0 51.867-58.68 99.633-158.31 133.754l-4.1 1.363z"/><path d="m3173.15 975.828v-191.066h-264.77v-765.6526h-191.07v765.6526h-266.14v191.066z"/><path d="m3364.22 20.4688v955.3592h191.07v-955.3592z"/><path d="m4404.18 743.813c-185.62 120.105-465.4 8.191-465.4-248.391 0-268.871 296.16-376.684 476.31-240.207l122.84-140.578c-85.99-70.9651-196.54-114.637-316.63-114.637-272.96 0-495.42 222.461-495.42 495.422 0 272.957 222.46 495.418 495.42 495.418 114.63 0 221.09-39.574 305.71-105.086z"/><path d="m4809.51 498.148c0-165.14 133.75-298.89 298.89-298.89s298.89 133.75 298.89 298.89c0 165.145-133.75 298.895-298.89 298.895s-298.89-133.75-298.89-298.895zm794.32 0c0-272.953-222.47-495.41362-495.43-495.41362-272.95 0-495.42 222.46062-495.42 495.41362 0 272.961 222.47 495.426 495.42 495.426 272.96 0 495.43-222.465 495.43-495.426"/><path d="m6530.51 19.1094-537.72 558.1996v-558.1996h-191.07v956.7186h60.04l528.18-535v535h191.07v-956.7186z"/></g></g></svg>